# xmcd
# Track frame offsets:
# 150
# 16730
# 32187
# 47421
# 65096
# 83883
# 98879
# 114497
# 126133
# 140420
# 154026
# 168335
# 186300
# 198322
# 212952
# 233364
#
# Disc length: 3290 seconds
# Revision: 2
# Processed by: cddbd v1.5.2PL0 Copyright (c) Steve Scherf et al.
# Submitted via: VisiTrax 2.9.10.228 - For more info visit www.synapsa.com
#
DISCID=d40cd810
DTITLE=Various Artist - CDX 420
DYEAR=2007
DGENRE=
TTITLE0=Clay Walker - Fall
TTITLE1=Toby Keith - High maintenance woman
TTITLE2=Flynnville train - Last good time
TTITLE3=Jason Michael Carroll - Livin' our love song
TTITLE4=Jon Bon Jovi - (You want to) Make a memory
TTITLE5=Donovan Chapman - All I need
TTITLE6=Oak Ridge Boys - Closer to home
TTITLE7=Johnny Lee - Kelly Kenning - She beat the cheat out of me
TTITLE8=Brandi Valentine - Burnin' bridges
TTITLE9=Cerrito - Dona Carmela
TTITLE10=Moore and Moore - Find me a man like Goober
TTITLE11=Indian rodeo - My block
TTITLE12=Billy McKnight - You're the ticket
TTITLE13=Cheryl K Warner - Dreams
TTITLE14=Lacy Younger - But I miss you
TTITLE15=Tim Wilson - But I could be wrong
EXTD=
EXTT0=
EXTT1=
EXTT2=
EXTT3=
EXTT4=
EXTT5=
EXTT6=
EXTT7=
EXTT8=
EXTT9=
EXTT10=
EXTT11=
EXTT12=
EXTT13=
EXTT14=
EXTT15=
PLAYORDER=
